<mxfile host="app.diagrams.net" agent="Mozilla/5.0 (Windows NT 10.0; Win64; x64) AppleWebKit/537.36 (KHTML, like Gecko) Chrome/131.0.0.0 Safari/537.36" version="25.0.3">
  <diagram name="หน้า-1" id="9Oc1v9sX7L1GQAaEOKBG">
    <mxGraphModel dx="1034" dy="446" grid="1" gridSize="10" guides="1" tooltips="1" connect="1" arrows="1" fold="1" page="1" pageScale="1" pageWidth="827" pageHeight="1169" math="0" shadow="0">
      <root>
        <mxCell id="0" />
        <mxCell id="1" parent="0" />
        <mxCell id="AINWbgy90IynfQnAmMZU-3" value="" style="edgeStyle=orthogonalEdgeStyle;rounded=0;orthogonalLoop=1;jettySize=auto;html=1;" edge="1" parent="1" source="AINWbgy90IynfQnAmMZU-1" target="AINWbgy90IynfQnAmMZU-2">
          <mxGeometry relative="1" as="geometry" />
        </mxCell>
        <mxCell id="AINWbgy90IynfQnAmMZU-1" value="start" style="strokeWidth=2;html=1;shape=mxgraph.flowchart.start_1;whiteSpace=wrap;" vertex="1" parent="1">
          <mxGeometry x="364" y="50" width="100" height="60" as="geometry" />
        </mxCell>
        <mxCell id="AINWbgy90IynfQnAmMZU-7" value="" style="edgeStyle=orthogonalEdgeStyle;rounded=0;orthogonalLoop=1;jettySize=auto;html=1;" edge="1" parent="1" source="AINWbgy90IynfQnAmMZU-2" target="AINWbgy90IynfQnAmMZU-6">
          <mxGeometry relative="1" as="geometry" />
        </mxCell>
        <mxCell id="AINWbgy90IynfQnAmMZU-2" value="กำหนดตัวแปร score" style="whiteSpace=wrap;html=1;strokeWidth=2;" vertex="1" parent="1">
          <mxGeometry x="354" y="190" width="120" height="60" as="geometry" />
        </mxCell>
        <mxCell id="AINWbgy90IynfQnAmMZU-9" value="" style="edgeStyle=orthogonalEdgeStyle;rounded=0;orthogonalLoop=1;jettySize=auto;html=1;" edge="1" parent="1" source="AINWbgy90IynfQnAmMZU-6" target="AINWbgy90IynfQnAmMZU-8">
          <mxGeometry relative="1" as="geometry" />
        </mxCell>
        <mxCell id="AINWbgy90IynfQnAmMZU-6" value="แสดงคำว่า enter score :" style="shape=parallelogram;perimeter=parallelogramPerimeter;whiteSpace=wrap;html=1;fixedSize=1;strokeWidth=2;" vertex="1" parent="1">
          <mxGeometry x="341" y="330" width="146" height="60" as="geometry" />
        </mxCell>
        <mxCell id="AINWbgy90IynfQnAmMZU-11" value="" style="edgeStyle=orthogonalEdgeStyle;rounded=0;orthogonalLoop=1;jettySize=auto;html=1;" edge="1" parent="1" source="AINWbgy90IynfQnAmMZU-8" target="AINWbgy90IynfQnAmMZU-10">
          <mxGeometry relative="1" as="geometry" />
        </mxCell>
        <mxCell id="AINWbgy90IynfQnAmMZU-8" value="รับค่าจากผู้ใช้" style="shape=parallelogram;perimeter=parallelogramPerimeter;whiteSpace=wrap;html=1;fixedSize=1;strokeWidth=2;" vertex="1" parent="1">
          <mxGeometry x="354" y="470" width="120" height="60" as="geometry" />
        </mxCell>
        <mxCell id="AINWbgy90IynfQnAmMZU-13" value="" style="edgeStyle=orthogonalEdgeStyle;rounded=0;orthogonalLoop=1;jettySize=auto;html=1;" edge="1" parent="1" source="AINWbgy90IynfQnAmMZU-10" target="AINWbgy90IynfQnAmMZU-12">
          <mxGeometry relative="1" as="geometry" />
        </mxCell>
        <mxCell id="AINWbgy90IynfQnAmMZU-10" value="score / 5" style="whiteSpace=wrap;html=1;strokeWidth=2;" vertex="1" parent="1">
          <mxGeometry x="354" y="610" width="120" height="60" as="geometry" />
        </mxCell>
        <mxCell id="AINWbgy90IynfQnAmMZU-17" value="" style="edgeStyle=orthogonalEdgeStyle;rounded=0;orthogonalLoop=1;jettySize=auto;html=1;" edge="1" parent="1" source="AINWbgy90IynfQnAmMZU-12" target="AINWbgy90IynfQnAmMZU-16">
          <mxGeometry relative="1" as="geometry" />
        </mxCell>
        <mxCell id="AINWbgy90IynfQnAmMZU-19" value="" style="edgeStyle=orthogonalEdgeStyle;rounded=0;orthogonalLoop=1;jettySize=auto;html=1;" edge="1" parent="1" source="AINWbgy90IynfQnAmMZU-12" target="AINWbgy90IynfQnAmMZU-18">
          <mxGeometry relative="1" as="geometry" />
        </mxCell>
        <mxCell id="AINWbgy90IynfQnAmMZU-12" value="score /5&lt;div&gt;ได้ 20 / 19 /18 / 17 / 16 ?&lt;/div&gt;" style="rhombus;whiteSpace=wrap;html=1;strokeWidth=2;" vertex="1" parent="1">
          <mxGeometry x="327" y="720" width="174" height="170" as="geometry" />
        </mxCell>
        <mxCell id="AINWbgy90IynfQnAmMZU-16" value="แสดงคำว่า A !" style="shape=parallelogram;perimeter=parallelogramPerimeter;whiteSpace=wrap;html=1;fixedSize=1;strokeWidth=2;" vertex="1" parent="1">
          <mxGeometry x="608" y="775" width="120" height="60" as="geometry" />
        </mxCell>
        <mxCell id="AINWbgy90IynfQnAmMZU-21" value="" style="edgeStyle=orthogonalEdgeStyle;rounded=0;orthogonalLoop=1;jettySize=auto;html=1;" edge="1" parent="1" source="AINWbgy90IynfQnAmMZU-18">
          <mxGeometry relative="1" as="geometry">
            <mxPoint x="618" y="1055" as="targetPoint" />
          </mxGeometry>
        </mxCell>
        <mxCell id="AINWbgy90IynfQnAmMZU-24" value="" style="edgeStyle=orthogonalEdgeStyle;rounded=0;orthogonalLoop=1;jettySize=auto;html=1;" edge="1" parent="1" source="AINWbgy90IynfQnAmMZU-18" target="AINWbgy90IynfQnAmMZU-23">
          <mxGeometry relative="1" as="geometry" />
        </mxCell>
        <mxCell id="AINWbgy90IynfQnAmMZU-18" value="score /5&lt;div&gt;ได้ 15&lt;/div&gt;" style="rhombus;whiteSpace=wrap;html=1;strokeWidth=2;" vertex="1" parent="1">
          <mxGeometry x="327" y="970" width="174" height="170" as="geometry" />
        </mxCell>
        <mxCell id="AINWbgy90IynfQnAmMZU-50" style="edgeStyle=orthogonalEdgeStyle;rounded=0;orthogonalLoop=1;jettySize=auto;html=1;exitX=1;exitY=0.5;exitDx=0;exitDy=0;" edge="1" parent="1" source="AINWbgy90IynfQnAmMZU-22" target="AINWbgy90IynfQnAmMZU-49">
          <mxGeometry relative="1" as="geometry" />
        </mxCell>
        <mxCell id="AINWbgy90IynfQnAmMZU-22" value="แสดงคำว่า B+ !" style="shape=parallelogram;perimeter=parallelogramPerimeter;whiteSpace=wrap;html=1;fixedSize=1;strokeWidth=2;" vertex="1" parent="1">
          <mxGeometry x="608" y="1025" width="120" height="60" as="geometry" />
        </mxCell>
        <mxCell id="AINWbgy90IynfQnAmMZU-26" value="" style="edgeStyle=orthogonalEdgeStyle;rounded=0;orthogonalLoop=1;jettySize=auto;html=1;" edge="1" parent="1" source="AINWbgy90IynfQnAmMZU-23" target="AINWbgy90IynfQnAmMZU-25">
          <mxGeometry relative="1" as="geometry" />
        </mxCell>
        <mxCell id="AINWbgy90IynfQnAmMZU-28" value="" style="edgeStyle=orthogonalEdgeStyle;rounded=0;orthogonalLoop=1;jettySize=auto;html=1;" edge="1" parent="1" source="AINWbgy90IynfQnAmMZU-23" target="AINWbgy90IynfQnAmMZU-27">
          <mxGeometry relative="1" as="geometry" />
        </mxCell>
        <mxCell id="AINWbgy90IynfQnAmMZU-23" value="score /5&lt;div&gt;ได้ 14&lt;/div&gt;" style="rhombus;whiteSpace=wrap;html=1;strokeWidth=2;" vertex="1" parent="1">
          <mxGeometry x="327" y="1220" width="174" height="170" as="geometry" />
        </mxCell>
        <mxCell id="AINWbgy90IynfQnAmMZU-25" value="แสดงคำว่า B !" style="shape=parallelogram;perimeter=parallelogramPerimeter;whiteSpace=wrap;html=1;fixedSize=1;strokeWidth=2;" vertex="1" parent="1">
          <mxGeometry x="590" y="1275" width="120" height="60" as="geometry" />
        </mxCell>
        <mxCell id="AINWbgy90IynfQnAmMZU-30" value="" style="edgeStyle=orthogonalEdgeStyle;rounded=0;orthogonalLoop=1;jettySize=auto;html=1;" edge="1" parent="1" source="AINWbgy90IynfQnAmMZU-27" target="AINWbgy90IynfQnAmMZU-29">
          <mxGeometry relative="1" as="geometry" />
        </mxCell>
        <mxCell id="AINWbgy90IynfQnAmMZU-32" value="" style="edgeStyle=orthogonalEdgeStyle;rounded=0;orthogonalLoop=1;jettySize=auto;html=1;" edge="1" parent="1" source="AINWbgy90IynfQnAmMZU-27" target="AINWbgy90IynfQnAmMZU-31">
          <mxGeometry relative="1" as="geometry" />
        </mxCell>
        <mxCell id="AINWbgy90IynfQnAmMZU-27" value="score /5&lt;div&gt;ได้ 13&lt;/div&gt;" style="rhombus;whiteSpace=wrap;html=1;strokeWidth=2;" vertex="1" parent="1">
          <mxGeometry x="327" y="1470" width="174" height="170" as="geometry" />
        </mxCell>
        <mxCell id="AINWbgy90IynfQnAmMZU-29" value="แสดงคำว่า C+ !" style="shape=parallelogram;perimeter=parallelogramPerimeter;whiteSpace=wrap;html=1;fixedSize=1;strokeWidth=2;" vertex="1" parent="1">
          <mxGeometry x="570" y="1525" width="120" height="60" as="geometry" />
        </mxCell>
        <mxCell id="AINWbgy90IynfQnAmMZU-34" value="" style="edgeStyle=orthogonalEdgeStyle;rounded=0;orthogonalLoop=1;jettySize=auto;html=1;" edge="1" parent="1" source="AINWbgy90IynfQnAmMZU-31" target="AINWbgy90IynfQnAmMZU-33">
          <mxGeometry relative="1" as="geometry" />
        </mxCell>
        <mxCell id="AINWbgy90IynfQnAmMZU-36" value="" style="edgeStyle=orthogonalEdgeStyle;rounded=0;orthogonalLoop=1;jettySize=auto;html=1;" edge="1" parent="1" source="AINWbgy90IynfQnAmMZU-31" target="AINWbgy90IynfQnAmMZU-35">
          <mxGeometry relative="1" as="geometry" />
        </mxCell>
        <mxCell id="AINWbgy90IynfQnAmMZU-31" value="score /5&lt;div&gt;ได้ 12&lt;/div&gt;" style="rhombus;whiteSpace=wrap;html=1;strokeWidth=2;" vertex="1" parent="1">
          <mxGeometry x="327" y="1720" width="174" height="170" as="geometry" />
        </mxCell>
        <mxCell id="AINWbgy90IynfQnAmMZU-33" value="แสดงคำว่า C !" style="shape=parallelogram;perimeter=parallelogramPerimeter;whiteSpace=wrap;html=1;fixedSize=1;strokeWidth=2;" vertex="1" parent="1">
          <mxGeometry x="570" y="1775" width="120" height="60" as="geometry" />
        </mxCell>
        <mxCell id="AINWbgy90IynfQnAmMZU-38" value="" style="edgeStyle=orthogonalEdgeStyle;rounded=0;orthogonalLoop=1;jettySize=auto;html=1;" edge="1" parent="1" source="AINWbgy90IynfQnAmMZU-35" target="AINWbgy90IynfQnAmMZU-37">
          <mxGeometry relative="1" as="geometry" />
        </mxCell>
        <mxCell id="AINWbgy90IynfQnAmMZU-40" value="" style="edgeStyle=orthogonalEdgeStyle;rounded=0;orthogonalLoop=1;jettySize=auto;html=1;" edge="1" parent="1" source="AINWbgy90IynfQnAmMZU-35" target="AINWbgy90IynfQnAmMZU-39">
          <mxGeometry relative="1" as="geometry" />
        </mxCell>
        <mxCell id="AINWbgy90IynfQnAmMZU-35" value="score /5&lt;div&gt;ได้ 11&lt;/div&gt;" style="rhombus;whiteSpace=wrap;html=1;strokeWidth=2;" vertex="1" parent="1">
          <mxGeometry x="327" y="1970" width="174" height="170" as="geometry" />
        </mxCell>
        <mxCell id="AINWbgy90IynfQnAmMZU-37" value="แสดงคำว่า D+ !" style="shape=parallelogram;perimeter=parallelogramPerimeter;whiteSpace=wrap;html=1;fixedSize=1;strokeWidth=2;" vertex="1" parent="1">
          <mxGeometry x="570" y="2025" width="120" height="60" as="geometry" />
        </mxCell>
        <mxCell id="AINWbgy90IynfQnAmMZU-42" value="" style="edgeStyle=orthogonalEdgeStyle;rounded=0;orthogonalLoop=1;jettySize=auto;html=1;" edge="1" parent="1" source="AINWbgy90IynfQnAmMZU-39" target="AINWbgy90IynfQnAmMZU-41">
          <mxGeometry relative="1" as="geometry" />
        </mxCell>
        <mxCell id="AINWbgy90IynfQnAmMZU-44" value="" style="edgeStyle=orthogonalEdgeStyle;rounded=0;orthogonalLoop=1;jettySize=auto;html=1;" edge="1" parent="1" source="AINWbgy90IynfQnAmMZU-39" target="AINWbgy90IynfQnAmMZU-43">
          <mxGeometry relative="1" as="geometry" />
        </mxCell>
        <mxCell id="AINWbgy90IynfQnAmMZU-39" value="score /5&lt;div&gt;ได้ 10&lt;/div&gt;" style="rhombus;whiteSpace=wrap;html=1;strokeWidth=2;" vertex="1" parent="1">
          <mxGeometry x="327" y="2220" width="174" height="170" as="geometry" />
        </mxCell>
        <mxCell id="AINWbgy90IynfQnAmMZU-41" value="แสดงคำว่า D !" style="shape=parallelogram;perimeter=parallelogramPerimeter;whiteSpace=wrap;html=1;fixedSize=1;strokeWidth=2;" vertex="1" parent="1">
          <mxGeometry x="570" y="2275" width="120" height="60" as="geometry" />
        </mxCell>
        <mxCell id="AINWbgy90IynfQnAmMZU-46" value="" style="edgeStyle=orthogonalEdgeStyle;rounded=0;orthogonalLoop=1;jettySize=auto;html=1;" edge="1" parent="1" source="AINWbgy90IynfQnAmMZU-43" target="AINWbgy90IynfQnAmMZU-45">
          <mxGeometry relative="1" as="geometry" />
        </mxCell>
        <mxCell id="AINWbgy90IynfQnAmMZU-43" value="Default" style="rhombus;whiteSpace=wrap;html=1;strokeWidth=2;" vertex="1" parent="1">
          <mxGeometry x="327" y="2470" width="174" height="170" as="geometry" />
        </mxCell>
        <mxCell id="AINWbgy90IynfQnAmMZU-45" value="แสดงคำว่า F !" style="shape=parallelogram;perimeter=parallelogramPerimeter;whiteSpace=wrap;html=1;fixedSize=1;strokeWidth=2;" vertex="1" parent="1">
          <mxGeometry x="570" y="2525" width="120" height="60" as="geometry" />
        </mxCell>
        <mxCell id="AINWbgy90IynfQnAmMZU-47" value="end" style="strokeWidth=2;html=1;shape=mxgraph.flowchart.start_1;whiteSpace=wrap;" vertex="1" parent="1">
          <mxGeometry x="364" y="2760" width="100" height="60" as="geometry" />
        </mxCell>
        <mxCell id="AINWbgy90IynfQnAmMZU-48" style="edgeStyle=orthogonalEdgeStyle;rounded=0;orthogonalLoop=1;jettySize=auto;html=1;exitDx=0;exitDy=0;entryX=0.5;entryY=0;entryDx=0;entryDy=0;entryPerimeter=0;" edge="1" parent="1" source="AINWbgy90IynfQnAmMZU-53" target="AINWbgy90IynfQnAmMZU-47">
          <mxGeometry relative="1" as="geometry">
            <Array as="points">
              <mxPoint x="790" y="2710" />
              <mxPoint x="414" y="2710" />
            </Array>
          </mxGeometry>
        </mxCell>
        <mxCell id="AINWbgy90IynfQnAmMZU-49" value="" style="shape=waypoint;sketch=0;fillStyle=solid;size=6;pointerEvents=1;points=[];fillColor=none;resizable=0;rotatable=0;perimeter=centerPerimeter;snapToPoint=1;" vertex="1" parent="1">
          <mxGeometry x="780" y="1045" width="20" height="20" as="geometry" />
        </mxCell>
        <mxCell id="AINWbgy90IynfQnAmMZU-51" value="" style="shape=waypoint;sketch=0;fillStyle=solid;size=6;pointerEvents=1;points=[];fillColor=none;resizable=0;rotatable=0;perimeter=centerPerimeter;snapToPoint=1;" vertex="1" parent="1">
          <mxGeometry x="780" y="1295" width="20" height="20" as="geometry" />
        </mxCell>
        <mxCell id="AINWbgy90IynfQnAmMZU-52" style="edgeStyle=orthogonalEdgeStyle;rounded=0;orthogonalLoop=1;jettySize=auto;html=1;exitX=1;exitY=0.5;exitDx=0;exitDy=0;entryX=0;entryY=0.5;entryDx=0;entryDy=0;entryPerimeter=0;" edge="1" parent="1" source="AINWbgy90IynfQnAmMZU-25" target="AINWbgy90IynfQnAmMZU-51">
          <mxGeometry relative="1" as="geometry" />
        </mxCell>
        <mxCell id="AINWbgy90IynfQnAmMZU-55" value="" style="edgeStyle=orthogonalEdgeStyle;rounded=0;orthogonalLoop=1;jettySize=auto;html=1;exitX=1;exitY=0.5;exitDx=0;exitDy=0;entryDx=0;entryDy=0;entryPerimeter=0;" edge="1" parent="1" source="AINWbgy90IynfQnAmMZU-16" target="AINWbgy90IynfQnAmMZU-53">
          <mxGeometry relative="1" as="geometry">
            <mxPoint x="718" y="805" as="sourcePoint" />
            <mxPoint x="414" y="2820" as="targetPoint" />
            <Array as="points" />
          </mxGeometry>
        </mxCell>
        <mxCell id="AINWbgy90IynfQnAmMZU-53" value="" style="shape=waypoint;sketch=0;fillStyle=solid;size=6;pointerEvents=1;points=[];fillColor=none;resizable=0;rotatable=0;perimeter=centerPerimeter;snapToPoint=1;" vertex="1" parent="1">
          <mxGeometry x="780" y="1545" width="20" height="20" as="geometry" />
        </mxCell>
        <mxCell id="AINWbgy90IynfQnAmMZU-56" style="edgeStyle=orthogonalEdgeStyle;rounded=0;orthogonalLoop=1;jettySize=auto;html=1;exitX=1;exitY=0.5;exitDx=0;exitDy=0;entryX=0.45;entryY=0.2;entryDx=0;entryDy=0;entryPerimeter=0;" edge="1" parent="1" source="AINWbgy90IynfQnAmMZU-29" target="AINWbgy90IynfQnAmMZU-53">
          <mxGeometry relative="1" as="geometry" />
        </mxCell>
        <mxCell id="AINWbgy90IynfQnAmMZU-57" value="" style="shape=waypoint;sketch=0;fillStyle=solid;size=6;pointerEvents=1;points=[];fillColor=none;resizable=0;rotatable=0;perimeter=centerPerimeter;snapToPoint=1;" vertex="1" parent="1">
          <mxGeometry x="780" y="1795" width="20" height="20" as="geometry" />
        </mxCell>
        <mxCell id="AINWbgy90IynfQnAmMZU-58" style="edgeStyle=orthogonalEdgeStyle;rounded=0;orthogonalLoop=1;jettySize=auto;html=1;exitX=1;exitY=0.5;exitDx=0;exitDy=0;entryX=0;entryY=0.4;entryDx=0;entryDy=0;entryPerimeter=0;" edge="1" parent="1" source="AINWbgy90IynfQnAmMZU-33" target="AINWbgy90IynfQnAmMZU-57">
          <mxGeometry relative="1" as="geometry" />
        </mxCell>
        <mxCell id="AINWbgy90IynfQnAmMZU-59" value="" style="shape=waypoint;sketch=0;fillStyle=solid;size=6;pointerEvents=1;points=[];fillColor=none;resizable=0;rotatable=0;perimeter=centerPerimeter;snapToPoint=1;" vertex="1" parent="1">
          <mxGeometry x="780" y="2045" width="20" height="20" as="geometry" />
        </mxCell>
        <mxCell id="AINWbgy90IynfQnAmMZU-60" style="edgeStyle=orthogonalEdgeStyle;rounded=0;orthogonalLoop=1;jettySize=auto;html=1;exitX=1;exitY=0.5;exitDx=0;exitDy=0;entryX=0.3;entryY=0.55;entryDx=0;entryDy=0;entryPerimeter=0;" edge="1" parent="1" source="AINWbgy90IynfQnAmMZU-37" target="AINWbgy90IynfQnAmMZU-59">
          <mxGeometry relative="1" as="geometry" />
        </mxCell>
        <mxCell id="AINWbgy90IynfQnAmMZU-61" value="" style="shape=waypoint;sketch=0;fillStyle=solid;size=6;pointerEvents=1;points=[];fillColor=none;resizable=0;rotatable=0;perimeter=centerPerimeter;snapToPoint=1;" vertex="1" parent="1">
          <mxGeometry x="780" y="2295" width="20" height="20" as="geometry" />
        </mxCell>
        <mxCell id="AINWbgy90IynfQnAmMZU-62" style="edgeStyle=orthogonalEdgeStyle;rounded=0;orthogonalLoop=1;jettySize=auto;html=1;exitX=1;exitY=0.5;exitDx=0;exitDy=0;entryX=0;entryY=0.5;entryDx=0;entryDy=0;entryPerimeter=0;" edge="1" parent="1" source="AINWbgy90IynfQnAmMZU-41" target="AINWbgy90IynfQnAmMZU-61">
          <mxGeometry relative="1" as="geometry" />
        </mxCell>
        <mxCell id="AINWbgy90IynfQnAmMZU-63" value="" style="shape=waypoint;sketch=0;fillStyle=solid;size=6;pointerEvents=1;points=[];fillColor=none;resizable=0;rotatable=0;perimeter=centerPerimeter;snapToPoint=1;" vertex="1" parent="1">
          <mxGeometry x="780" y="2545" width="20" height="20" as="geometry" />
        </mxCell>
        <mxCell id="AINWbgy90IynfQnAmMZU-65" style="edgeStyle=orthogonalEdgeStyle;rounded=0;orthogonalLoop=1;jettySize=auto;html=1;exitX=1;exitY=0.5;exitDx=0;exitDy=0;entryX=0;entryY=0.5;entryDx=0;entryDy=0;entryPerimeter=0;" edge="1" parent="1" source="AINWbgy90IynfQnAmMZU-45" target="AINWbgy90IynfQnAmMZU-63">
          <mxGeometry relative="1" as="geometry" />
        </mxCell>
      </root>
    </mxGraphModel>
  </diagram>
</mxfile>
